<?xml version="1.0" standalone="no"?><svg xmlns:xlink="http://www.w3.org/1999/xlink" xmlns="http://www.w3.org/2000/svg" viewBox="0 0 1000 285.7099337748345" preserveAspectRatio="xMaxYMax slice"><g transform="scale(0.6622516556291391)"><rect x="0" y="0" width="1510" height="431.42857142857144" fill="#f6eeee"/><rect x="10.79" y="10.79" width="86.29" height="86.29" fill="#545e61"/><g transform="translate(118.64,10.79) scale(4.314500000000001) rotate(0)"><path d="M5 0H10L5 5L0 10V5L5 0Z" fill="#7b7371"/><path d="M20 15V20H15L20 15Z" fill="#7b7371"/><path d="M20 5V10L15 15L10 20H5L20 5Z" fill="#7b7371"/><path d="M15 0H20L5 15.0002L0 20.0002V15.0002L15 0Z" fill="#7b7371"/></g><g transform="translate(226.5,10.79) scale(4.314500000000001) rotate(0)"><path d="M5 0H10L5 5L0 10V5L5 0Z" fill="#c9c6c7"/><path d="M20 15V20H15L20 15Z" fill="#c9c6c7"/><path d="M20 5V10L15 15L10 20H5L20 5Z" fill="#c9c6c7"/><path d="M15 0H20L5 15.0002L0 20.0002V15.0002L15 0Z" fill="#c9c6c7"/></g><g transform="translate(334.36,10.79) scale(4.314500000000001) rotate(0)"><path d="M5 0H10L5 5L0 10V5L5 0Z" fill="#756e6b"/><path d="M20 15V20H15L20 15Z" fill="#756e6b"/><path d="M20 5V10L15 15L10 20H5L20 5Z" fill="#756e6b"/><path d="M15 0H20L5 15.0002L0 20.0002V15.0002L15 0Z" fill="#756e6b"/></g><g transform="translate(442.21,10.79) scale(4.314500000000001) rotate(0)"><rect width="2" height="20" fill="#979a9c"/><rect x="4" width="2" height="20" fill="#979a9c"/><rect x="8" width="2" height="20" fill="#979a9c"/><rect x="12" width="2" height="20" fill="#979a9c"/><rect x="16" width="2" height="20" fill="#979a9c"/></g><g transform="translate(550.07,10.79) scale(4.314500000000001) rotate(0)"><rect width="2" height="20" fill="#cdc5c4"/><rect x="4" width="2" height="20" fill="#cdc5c4"/><rect x="8" width="2" height="20" fill="#cdc5c4"/><rect x="12" width="2" height="20" fill="#cdc5c4"/><rect x="16" width="2" height="20" fill="#cdc5c4"/></g><g transform="translate(657.93,10.79) scale(4.314500000000001) rotate(0)"><path d="M5 0H10L5 5L0 10V5L5 0Z" fill="#706966"/><path d="M20 15V20H15L20 15Z" fill="#706966"/><path d="M20 5V10L15 15L10 20H5L20 5Z" fill="#706966"/><path d="M15 0H20L5 15.0002L0 20.0002V15.0002L15 0Z" fill="#706966"/></g><g transform="translate(765.79,10.79) scale(4.314500000000001) rotate(0)"><rect width="2" height="20" fill="#3a474b"/><rect x="4" width="2" height="20" fill="#3a474b"/><rect x="8" width="2" height="20" fill="#3a474b"/><rect x="12" width="2" height="20" fill="#3a474b"/><rect x="16" width="2" height="20" fill="#3a474b"/></g><g transform="translate(873.64,10.79) scale(4.314500000000001) rotate(0)"><path d="M5 0H10L5 5L0 10V5L5 0Z" fill="#efe7e7"/><path d="M20 15V20H15L20 15Z" fill="#efe7e7"/><path d="M20 5V10L15 15L10 20H5L20 5Z" fill="#efe7e7"/><path d="M15 0H20L5 15.0002L0 20.0002V15.0002L15 0Z" fill="#efe7e7"/></g><g transform="translate(981.5,10.79) scale(4.314500000000001) rotate(0)"><rect width="2" height="20" fill="#7a8082"/><rect x="4" width="2" height="20" fill="#7a8082"/><rect x="8" width="2" height="20" fill="#7a8082"/><rect x="12" width="2" height="20" fill="#7a8082"/><rect x="16" width="2" height="20" fill="#7a8082"/></g><rect x="1089.36" y="10.79" width="86.29" height="86.29" fill="#ede6e6"/><g transform="translate(1197.21,10.79) scale(4.314500000000001) rotate(0)"><rect width="2" height="20" fill="#69625f"/><rect x="4" width="2" height="20" fill="#69625f"/><rect x="8" width="2" height="20" fill="#69625f"/><rect x="12" width="2" height="20" fill="#69625f"/><rect x="16" width="2" height="20" fill="#69625f"/></g><g transform="translate(1305.07,10.79) scale(4.314500000000001) rotate(0)"><rect width="2" height="20" fill="#d2cac9"/><rect x="4" width="2" height="20" fill="#d2cac9"/><rect x="8" width="2" height="20" fill="#d2cac9"/><rect x="12" width="2" height="20" fill="#d2cac9"/><rect x="16" width="2" height="20" fill="#d2cac9"/></g><g transform="translate(1412.93,10.79) scale(4.314500000000001) rotate(0)"><rect width="20" height="2" fill="#cbc7c8"/><rect y="4" width="20" height="2" fill="#cbc7c8"/><rect y="8" width="20" height="2" fill="#cbc7c8"/><rect y="12" width="20" height="2" fill="#cbc7c8"/><rect y="16" width="20" height="2" fill="#cbc7c8"/></g><g transform="translate(10.79,118.64) scale(4.314500000000001) rotate(0)"><rect width="20" height="2" fill="#8e9193"/><rect y="4" width="20" height="2" fill="#8e9193"/><rect y="8" width="20" height="2" fill="#8e9193"/><rect y="12" width="20" height="2" fill="#8e9193"/><rect y="16" width="20" height="2" fill="#8e9193"/></g><g transform="translate(118.64,118.64) scale(4.314500000000001) rotate(0)"><rect width="2" height="20" fill="#88817f"/><rect x="4" width="2" height="20" fill="#88817f"/><rect x="8" width="2" height="20" fill="#88817f"/><rect x="12" width="2" height="20" fill="#88817f"/><rect x="16" width="2" height="20" fill="#88817f"/></g><g transform="translate(226.5,118.64) scale(4.314500000000001) rotate(0)"><rect width="20" height="2" fill="#cdc5c4"/><rect y="4" width="20" height="2" fill="#cdc5c4"/><rect y="8" width="20" height="2" fill="#cdc5c4"/><rect y="12" width="20" height="2" fill="#cdc5c4"/><rect y="16" width="20" height="2" fill="#cdc5c4"/></g><g transform="translate(334.36,118.64) scale(4.314500000000001) rotate(0)"><rect width="20" height="2" fill="#5b5451"/><rect y="4" width="20" height="2" fill="#5b5451"/><rect y="8" width="20" height="2" fill="#5b5451"/><rect y="12" width="20" height="2" fill="#5b5451"/><rect y="16" width="20" height="2" fill="#5b5451"/></g><g transform="translate(442.21,118.64) scale(4.314500000000001) rotate(0)"><rect width="2" height="20" fill="#e8e1e2"/><rect x="4" width="2" height="20" fill="#e8e1e2"/><rect x="8" width="2" height="20" fill="#e8e1e2"/><rect x="12" width="2" height="20" fill="#e8e1e2"/><rect x="16" width="2" height="20" fill="#e8e1e2"/></g><g transform="translate(550.07,118.64) scale(4.314500000000001) rotate(0)"><rect width="20" height="2" fill="#c4c1c2"/><rect y="4" width="20" height="2" fill="#c4c1c2"/><rect y="8" width="20" height="2" fill="#c4c1c2"/><rect y="12" width="20" height="2" fill="#c4c1c2"/><rect y="16" width="20" height="2" fill="#c4c1c2"/></g><g transform="translate(657.93,118.64) scale(4.314500000000001) rotate(0)"><rect width="20" height="2" fill="#d7d2d3"/><rect y="4" width="20" height="2" fill="#d7d2d3"/><rect y="8" width="20" height="2" fill="#d7d2d3"/><rect y="12" width="20" height="2" fill="#d7d2d3"/><rect y="16" width="20" height="2" fill="#d7d2d3"/></g><g transform="translate(765.79,118.64) scale(4.314500000000001) rotate(0)"><rect width="20" height="2" fill="#495457"/><rect y="4" width="20" height="2" fill="#495457"/><rect y="8" width="20" height="2" fill="#495457"/><rect y="12" width="20" height="2" fill="#495457"/><rect y="16" width="20" height="2" fill="#495457"/></g><rect x="873.64" y="118.64" width="86.29" height="86.29" fill="#6e7577"/><g transform="translate(981.5,118.64) scale(4.314500000000001) rotate(0)"><rect width="2" height="20" fill="#706966"/><rect x="4" width="2" height="20" fill="#706966"/><rect x="8" width="2" height="20" fill="#706966"/><rect x="12" width="2" height="20" fill="#706966"/><rect x="16" width="2" height="20" fill="#706966"/></g><g transform="translate(1089.36,118.64) scale(4.314500000000001) rotate(0)"><path d="M5 0H10L5 5L0 10V5L5 0Z" fill="#f3ebeb"/><path d="M20 15V20H15L20 15Z" fill="#f3ebeb"/><path d="M20 5V10L15 15L10 20H5L20 5Z" fill="#f3ebeb"/><path d="M15 0H20L5 15.0002L0 20.0002V15.0002L15 0Z" fill="#f3ebeb"/></g><rect x="1197.21" y="118.64" width="86.29" height="86.29" fill="#7f8486"/><g transform="translate(1305.07,118.64) scale(4.314500000000001) rotate(0)"><rect width="2" height="20" fill="#b8b7b8"/><rect x="4" width="2" height="20" fill="#b8b7b8"/><rect x="8" width="2" height="20" fill="#b8b7b8"/><rect x="12" width="2" height="20" fill="#b8b7b8"/><rect x="16" width="2" height="20" fill="#b8b7b8"/></g><rect x="1412.93" y="118.64" width="86.29" height="86.29" fill="#c1b9b8"/><rect x="10.79" y="226.5" width="86.29" height="86.29" fill="#586265"/><g transform="translate(118.64,226.5) scale(4.314500000000001) rotate(0)"><rect width="20" height="2" fill="#655e5a"/><rect y="4" width="20" height="2" fill="#655e5a"/><rect y="8" width="20" height="2" fill="#655e5a"/><rect y="12" width="20" height="2" fill="#655e5a"/><rect y="16" width="20" height="2" fill="#655e5a"/></g><rect x="226.5" y="226.5" width="86.29" height="86.29" fill="#61696c"/><g transform="translate(334.36,226.5) scale(4.314500000000001) rotate(0)"><path d="M5 0H10L5 5L0 10V5L5 0Z" fill="#a2a3a5"/><path d="M20 15V20H15L20 15Z" fill="#a2a3a5"/><path d="M20 5V10L15 15L10 20H5L20 5Z" fill="#a2a3a5"/><path d="M15 0H20L5 15.0002L0 20.0002V15.0002L15 0Z" fill="#a2a3a5"/></g><rect x="442.21" y="226.5" width="86.29" height="86.29" fill="#ece5e5"/><g transform="translate(550.07,226.5) scale(4.314500000000001) rotate(0)"><rect width="20" height="2" fill="#cbc8c8"/><rect y="4" width="20" height="2" fill="#cbc8c8"/><rect y="8" width="20" height="2" fill="#cbc8c8"/><rect y="12" width="20" height="2" fill="#cbc8c8"/><rect y="16" width="20" height="2" fill="#cbc8c8"/></g><g transform="translate(657.93,226.5) scale(4.314500000000001) rotate(0)"><rect width="20" height="2" fill="#7a8082"/><rect y="4" width="20" height="2" fill="#7a8082"/><rect y="8" width="20" height="2" fill="#7a8082"/><rect y="12" width="20" height="2" fill="#7a8082"/><rect y="16" width="20" height="2" fill="#7a8082"/></g><g transform="translate(765.79,226.5) scale(4.314500000000001) rotate(0)"><rect width="20" height="2" fill="#aaaaac"/><rect y="4" width="20" height="2" fill="#aaaaac"/><rect y="8" width="20" height="2" fill="#aaaaac"/><rect y="12" width="20" height="2" fill="#aaaaac"/><rect y="16" width="20" height="2" fill="#aaaaac"/></g><g transform="translate(873.64,226.5) scale(4.314500000000001) rotate(0)"><rect width="20" height="2" fill="#dbd6d6"/><rect y="4" width="20" height="2" fill="#dbd6d6"/><rect y="8" width="20" height="2" fill="#dbd6d6"/><rect y="12" width="20" height="2" fill="#dbd6d6"/><rect y="16" width="20" height="2" fill="#dbd6d6"/></g><g transform="translate(981.5,226.5) scale(4.314500000000001) rotate(0)"><path d="M5 0H10L5 5L0 10V5L5 0Z" fill="#324044"/><path d="M20 15V20H15L20 15Z" fill="#324044"/><path d="M20 5V10L15 15L10 20H5L20 5Z" fill="#324044"/><path d="M15 0H20L5 15.0002L0 20.0002V15.0002L15 0Z" fill="#324044"/></g><g transform="translate(1089.36,226.5) scale(4.314500000000001) rotate(0)"><rect width="2" height="20" fill="#5b5350"/><rect x="4" width="2" height="20" fill="#5b5350"/><rect x="8" width="2" height="20" fill="#5b5350"/><rect x="12" width="2" height="20" fill="#5b5350"/><rect x="16" width="2" height="20" fill="#5b5350"/></g><g transform="translate(1197.21,226.5) scale(4.314500000000001) rotate(0)"><rect width="20" height="2" fill="#888c8e"/><rect y="4" width="20" height="2" fill="#888c8e"/><rect y="8" width="20" height="2" fill="#888c8e"/><rect y="12" width="20" height="2" fill="#888c8e"/><rect y="16" width="20" height="2" fill="#888c8e"/></g><g transform="translate(1305.07,226.5) scale(4.314500000000001) rotate(0)"><path d="M5 0H10L5 5L0 10V5L5 0Z" fill="#485356"/><path d="M20 15V20H15L20 15Z" fill="#485356"/><path d="M20 5V10L15 15L10 20H5L20 5Z" fill="#485356"/><path d="M15 0H20L5 15.0002L0 20.0002V15.0002L15 0Z" fill="#485356"/></g><g transform="translate(1412.93,226.5) scale(4.314500000000001) rotate(0)"><rect width="2" height="20" fill="#4a4340"/><rect x="4" width="2" height="20" fill="#4a4340"/><rect x="8" width="2" height="20" fill="#4a4340"/><rect x="12" width="2" height="20" fill="#4a4340"/><rect x="16" width="2" height="20" fill="#4a4340"/></g><g transform="translate(10.79,334.36) scale(4.314500000000001) rotate(0)"><rect width="2" height="20" fill="#807976"/><rect x="4" width="2" height="20" fill="#807976"/><rect x="8" width="2" height="20" fill="#807976"/><rect x="12" width="2" height="20" fill="#807976"/><rect x="16" width="2" height="20" fill="#807976"/></g><rect x="118.64" y="334.36" width="86.29" height="86.29" fill="#c3bcbb"/><g transform="translate(226.5,334.36) scale(4.314500000000001) rotate(0)"><rect width="20" height="2" fill="#aeaeaf"/><rect y="4" width="20" height="2" fill="#aeaeaf"/><rect y="8" width="20" height="2" fill="#aeaeaf"/><rect y="12" width="20" height="2" fill="#aeaeaf"/><rect y="16" width="20" height="2" fill="#aeaeaf"/></g><g transform="translate(334.36,334.36) scale(4.314500000000001) rotate(0)"><rect width="20" height="2" fill="#d3cfd0"/><rect y="4" width="20" height="2" fill="#d3cfd0"/><rect y="8" width="20" height="2" fill="#d3cfd0"/><rect y="12" width="20" height="2" fill="#d3cfd0"/><rect y="16" width="20" height="2" fill="#d3cfd0"/></g><rect x="442.21" y="334.36" width="86.29" height="86.29" fill="#7a7270"/><g transform="translate(550.07,334.36) scale(4.314500000000001) rotate(0)"><rect width="20" height="2" fill="#888c8e"/><rect y="4" width="20" height="2" fill="#888c8e"/><rect y="8" width="20" height="2" fill="#888c8e"/><rect y="12" width="20" height="2" fill="#888c8e"/><rect y="16" width="20" height="2" fill="#888c8e"/></g><g transform="translate(657.93,334.36) scale(4.314500000000001) rotate(0)"><path d="M5 0H10L5 5L0 10V5L5 0Z" fill="#28363a"/><path d="M20 15V20H15L20 15Z" fill="#28363a"/><path d="M20 5V10L15 15L10 20H5L20 5Z" fill="#28363a"/><path d="M15 0H20L5 15.0002L0 20.0002V15.0002L15 0Z" fill="#28363a"/></g><g transform="translate(765.79,334.36) scale(4.314500000000001) rotate(0)"><rect width="2" height="20" fill="#c8c1c0"/><rect x="4" width="2" height="20" fill="#c8c1c0"/><rect x="8" width="2" height="20" fill="#c8c1c0"/><rect x="12" width="2" height="20" fill="#c8c1c0"/><rect x="16" width="2" height="20" fill="#c8c1c0"/></g><g transform="translate(873.64,334.36) scale(4.314500000000001) rotate(0)"><rect width="2" height="20" fill="#4e585c"/><rect x="4" width="2" height="20" fill="#4e585c"/><rect x="8" width="2" height="20" fill="#4e585c"/><rect x="12" width="2" height="20" fill="#4e585c"/><rect x="16" width="2" height="20" fill="#4e585c"/></g><g transform="translate(981.5,334.36) scale(4.314500000000001) rotate(0)"><rect width="20" height="2" fill="#f4ecec"/><rect y="4" width="20" height="2" fill="#f4ecec"/><rect y="8" width="20" height="2" fill="#f4ecec"/><rect y="12" width="20" height="2" fill="#f4ecec"/><rect y="16" width="20" height="2" fill="#f4ecec"/></g><g transform="translate(1089.36,334.36) scale(4.314500000000001) rotate(0)"><path d="M5 0H10L5 5L0 10V5L5 0Z" fill="#cdc6c5"/><path d="M20 15V20H15L20 15Z" fill="#cdc6c5"/><path d="M20 5V10L15 15L10 20H5L20 5Z" fill="#cdc6c5"/><path d="M15 0H20L5 15.0002L0 20.0002V15.0002L15 0Z" fill="#cdc6c5"/></g><g transform="translate(1197.21,334.36) scale(4.314500000000001) rotate(0)"><rect width="2" height="20" fill="#3d494d"/><rect x="4" width="2" height="20" fill="#3d494d"/><rect x="8" width="2" height="20" fill="#3d494d"/><rect x="12" width="2" height="20" fill="#3d494d"/><rect x="16" width="2" height="20" fill="#3d494d"/></g><g transform="translate(1305.07,334.36) scale(4.314500000000001) rotate(0)"><path d="M5 0H10L5 5L0 10V5L5 0Z" fill="#c4bcbb"/><path d="M20 15V20H15L20 15Z" fill="#c4bcbb"/><path d="M20 5V10L15 15L10 20H5L20 5Z" fill="#c4bcbb"/><path d="M15 0H20L5 15.0002L0 20.0002V15.0002L15 0Z" fill="#c4bcbb"/></g><g transform="translate(1412.93,334.36) scale(4.314500000000001) rotate(0)"><rect width="2" height="20" fill="#655e5b"/><rect x="4" width="2" height="20" fill="#655e5b"/><rect x="8" width="2" height="20" fill="#655e5b"/><rect x="12" width="2" height="20" fill="#655e5b"/><rect x="16" width="2" height="20" fill="#655e5b"/></g></g></svg>